# xmcd
#
# Track frame offsets: 
#        150
#        11925
#        21200
#        33542
#        43397
#        54262
#        66522
#        79997
#        92205
#        105455
#        117917
#        132517
#        142685
#        155722
#        169617
#
# Disc length: 2420 seconds
#
# Revision: 0
# Processed by: cddbd v1.5.2PL0 Copyright (c) Steve Scherf et al.
# Submitted via: ExactAudioCopy v0.95b4
#
DISCID=d109720f
DTITLE=Chuck Berry - St. Louis To Liverpool
DYEAR=2004
DGENRE=Rock and Roll
TTITLE0=Little Marie
TTITLE1=Our Little Rendezvous
TTITLE2=No Particular Place To Go
TTITLE3=You Two
TTITLE4=Promised Land
TTITLE5=You Never Can Tell
TTITLE6=Go Bobby Soxer
TTITLE7=The Things I Used To Do
TTITLE8=Liverpool Drive
TTITLE9=Night Beat
TTITLE10=Merry Christmas Baby
TTITLE11=Brenda Lee
TTITLE12=Fraulein
TTITLE13=O'Rangutang
TTITLE14=The Little Girl From Central
EXTD=
EXTT0=
EXTT1=
EXTT2=
EXTT3=
EXTT4=
EXTT5=
EXTT6=
EXTT7=
EXTT8=
EXTT9=
EXTT10=
EXTT11=
EXTT12=
EXTT13=
EXTT14=
PLAYORDER=
